<svg width="70" height="70" viewBox="0 0 70 70" fill="none" xmlns="http://www.w3.org/2000/svg">
<g clip-path="url(#clip0_132_172)">
<path d="M51.331 51.6454C51.863 55.7684 47.439 57.5743 44.555 54.8163C45.087 58.9603 40.558 60.7033 37.779 57.8403C38.311 61.1723 34.93 63.6083 31.997 61.7883C31.941 61.4663 32.69 60.3323 32.844 59.8983C33.831 57.0914 32.809 53.6264 30.24 52.0444C29.456 51.5614 28.371 51.4004 27.776 51.0504C27.384 50.8194 26.915 49.8954 26.46 49.4824C25.69 48.7824 24.388 48.4814 23.947 48.1034C23.793 47.9774 23.485 46.9414 23.296 46.5914C22.701 45.4924 21.581 44.4984 20.482 43.9244C20.202 43.7774 19.523 43.6934 19.362 43.5324C19.257 43.4204 18.844 42.2234 18.634 41.8804C16.877 38.9404 13.013 37.9604 9.97499 39.4794C7.91699 40.5084 6.93699 42.6644 5.341 44.2184C3.633 44.1484 0.231 45.1214 0 42.6434L0.0839999 18.1924C0.315 17.5274 0.825999 17.1214 1.526 17.0374C5.376 17.3104 9.70199 16.6804 13.503 17.0374C15.33 17.2054 14.112 18.6334 13.832 19.6904C12.53 24.6324 16.422 27.5654 20.993 27.7124C25.977 27.8734 30.849 23.6664 35.189 21.5874C35.553 21.4124 35.931 21.0904 36.337 21.3004C42.455 28.7764 48.727 36.1334 54.789 43.6514C55.727 44.8204 58.1069 47.3404 58.254 48.6914C58.611 51.9674 55.104 54.0674 52.388 52.3944C51.989 52.1494 51.772 51.7014 51.338 51.6454H51.331Z" fill="#FDCF3F"/>
<path d="M36.8831 8.00741C38.8291 7.93741 40.3691 8.37141 42.1751 8.97341C48.6711 11.1364 55.5241 14.7274 61.992 16.5404C64.526 17.2544 66.563 16.6944 68.831 17.0514C69.342 17.1354 69.762 17.6044 70 18.0454L69.951 43.0984C69.685 43.6724 69.363 44.0714 68.698 44.1484C66.948 44.3514 64.463 43.7424 62.874 44.5194C62.153 44.8694 61.509 46.1504 60.774 45.4434L37.7091 17.6254L36.4141 17.1844C32.6761 18.7734 29.2531 21.3074 25.6271 23.1274C24.6891 23.5964 23.6321 24.1494 22.5751 24.2544C20.5171 24.4574 16.5271 24.0024 17.0591 21.0484C17.2621 19.9284 19.0331 18.8504 19.9221 18.1504C23.1771 15.5884 27.2581 12.2004 30.6741 10.0164C32.5221 8.83341 34.6851 8.09141 36.8831 8.00741Z" fill="#FDCF3F"/>
<path d="M20.4819 51.3514C23.0089 50.7144 24.9759 51.8904 25.2489 54.5154C29.4979 53.5074 31.2409 57.5464 28.5529 60.6474C26.6279 62.8664 23.1279 61.6273 22.7919 58.8484C21.9729 58.9394 21.4409 59.2334 20.5729 59.1214C19.5019 58.9884 18.1789 57.9664 17.8639 56.9304C17.6679 56.2934 17.9269 55.6984 17.5349 55.2434C15.0429 56.5874 12.1239 54.2354 12.5579 51.4914C11.4729 51.8064 10.7169 52.0794 9.5969 51.6454C7.9799 51.0224 7.0839 49.2934 7.4339 47.5924C7.6019 46.7594 10.4439 43.2454 11.1929 42.6994C13.4049 41.0894 16.4639 42.6784 16.1629 45.5134C16.1209 45.9124 15.5259 46.9484 15.9529 47.0254C16.0229 47.0394 16.9189 46.6404 17.2619 46.6054C19.8589 46.3604 21.4129 49.0624 20.4889 51.3444L20.4819 51.3514Z" fill="#FDCF3F"/>
</g>
<defs>
<clipPath id="clip0_132_172">
<rect width="70" height="70" fill="white"/>
</clipPath>
</defs>
</svg>
