<svg width="70" height="70" viewBox="0 0 70 70" fill="none" xmlns="http://www.w3.org/2000/svg">
<g clip-path="url(#clip0_132_171)">
<path d="M37.1688 0L40.7535 0.4469C55.6723 2.90961 67.7196 15.2802 69.6784 30.3036C69.783 31.1214 69.7639 32.0247 69.9731 32.8139C69.9066 34.2592 70.0587 35.7425 69.9731 37.1878C68.1855 67.8147 29.7711 81.4119 9.01404 58.4488C-10.6115 36.7694 3.8414 1.69252 32.7948 0H37.1688ZM21.1469 23.9615C17.3055 24.1897 15.7175 29.2292 18.8078 31.5588C22.2594 34.1641 26.9376 30.6745 25.3021 26.5668C24.6365 24.9028 22.9155 23.8569 21.1564 23.9615H21.1469ZM48.2081 23.9615C42.6647 24.3893 43.1876 33.1277 49.2446 32.386C54.3506 31.768 53.685 23.5336 48.2081 23.9615ZM33.584 38.1862C29.7997 38.4619 23.7332 40.8105 21.5272 44.0339C20.2911 45.8406 21.4226 48.6361 23.5811 48.9308C25.7395 49.2256 26.0723 48.1511 27.4796 47.1147C31.6443 44.0149 37.0927 43.5395 41.5332 46.4301C42.5601 47.0957 43.9768 48.7311 45.0608 48.9118C47.457 49.3207 49.3016 47.4855 48.8927 45.0799C48.655 43.6726 46.0117 41.7139 44.8136 40.9532C41.5046 38.8613 37.5015 37.8914 33.5935 38.1767L33.584 38.1862Z" fill="#FDCF3F"/>
</g>
<defs>
<clipPath id="clip0_132_171">
<rect width="70" height="70" fill="white"/>
</clipPath>
</defs>
</svg>
