<svg width="70" height="70" viewBox="0 0 70 70" fill="none" xmlns="http://www.w3.org/2000/svg">
<path d="M37.0612 2.66384L45.8176 21.8872L66.5109 24.4159C68.8965 24.7073 69.8581 27.706 68.0921 29.3698L52.8171 43.7803L56.8485 64.5641C57.3108 66.9612 54.805 68.8224 52.6969 67.6286L34.5 57.3072L16.3031 67.6286C14.2042 68.8224 11.6892 66.9612 12.1515 64.5641L16.1829 43.7803L0.907924 29.3698C-0.858133 27.706 0.10349 24.7073 2.48905 24.4159L23.1824 21.8872L31.9388 2.66384C32.9466 0.445388 36.0534 0.445388 37.0612 2.66384Z" fill="#FDCF3F"/>
<path d="M34.3336 60.1395L33.0311 67.0418C32.8404 68.0518 33.5505 69 34.5 69C35.4495 69 36.1596 68.0518 35.9689 67.0418L34.6582 60.1439C34.6217 59.9498 34.3702 59.9542 34.3336 60.1439V60.1395Z" fill="#FDCF3F"/>
<path d="M57.0967 46.3461L63.4965 49.7937C64.4336 50.3003 65.6084 49.8341 65.9238 48.8298C66.2393 47.8256 65.5398 46.7944 64.4747 46.6913L57.2064 46.0009C57.0052 45.9829 56.9184 46.2474 57.0967 46.3461Z" fill="#FDCF3F"/>
<path d="M19.3614 18.6643L16.2695 12.0853C15.8179 11.1205 14.5962 10.7961 13.7451 11.4155C12.8941 12.0349 12.8426 13.2798 13.6372 13.9965L19.0678 18.8765C19.2188 19.0106 19.446 18.8497 19.3614 18.6643Z" fill="#FDCF3F"/>
<path d="M11.7774 46.0029L4.43572 47.3356C3.35894 47.5303 2.725 48.7332 3.11655 49.8213C3.51277 50.9094 4.73871 51.3387 5.657 50.7048L11.9126 46.3773C12.085 46.2575 11.9825 45.968 11.7774 46.0029Z" fill="#FDCF3F"/>
<path d="M48.9315 19.0231L55.3637 15.2412C56.3074 14.6873 56.4878 13.3395 55.7451 12.4531C54.9981 11.5683 53.6993 11.5879 53.0559 12.4996L48.6756 18.7183C48.555 18.8902 48.751 19.1266 48.9315 19.0231Z" fill="#FDCF3F"/>
</svg>
